<?xml version="1.0" encoding="utf-8"?>
<!-- Generator: Adobe Illustrator 19.2.1, SVG Export Plug-In . SVG Version: 6.00 Build 0)  -->
<svg version="1.1" id="Layer_1" xmlns="http://www.w3.org/2000/svg" xmlns:xlink="http://www.w3.org/1999/xlink" x="0px" y="0px"
	 viewBox="0 0 204 86" style="enable-background:new 0 0 204 86;" xml:space="preserve">
<style type="text/css">
	.st0{fill:#f15a2c;}
	.st1{fill:#784398;}
	.st2{fill:url(#SVGID_1_);}
</style>
<g>
	<g>
		<path class="st0" d="M91.7,38.7c-0.4,0.3-0.6,0.6-0.8,1l-6.3,17c-0.4,1-0.7,2-0.9,2.9s-0.5,1.9-0.6,2.9c-0.2-1-0.4-1.9-0.6-2.9
			s-0.5-1.9-0.9-2.9l-6.2-17c-0.1-0.4-0.4-0.8-0.8-1c-0.4-0.3-0.9-0.4-1.4-0.4h-6.4l12.7,31.9h7l12.7-31.9h-6.1
			C92.5,38.3,92.1,38.4,91.7,38.7z"/>
		<path class="st0" d="M125.8,41.6c-1.2-1.2-2.7-2.2-4.4-2.8c-1.7-0.6-3.5-1-5.6-1c-2.4,0-4.5,0.4-6.4,1.2c-1.9,0.8-3.5,2-4.8,3.4
			c-1.3,1.4-2.3,3.1-3,5c-0.7,1.9-1.1,4-1.1,6.1c0,2.8,0.4,5.3,1.2,7.4c0.8,2.1,1.9,3.9,3.3,5.4c1.4,1.4,3.1,2.5,5,3.3
			c1.9,0.7,4,1.1,6.2,1.1c1.1,0,2.3-0.1,3.5-0.2s2.4-0.5,3.5-0.9s2.3-0.9,3.3-1.6c1.1-0.7,2-1.5,2.9-2.5l-2.2-2.8
			c-0.2-0.2-0.4-0.4-0.6-0.5c-0.2-0.1-0.5-0.2-0.8-0.2c-0.5,0-1,0.1-1.5,0.4c-0.5,0.3-1.1,0.6-1.8,1c-0.7,0.4-1.5,0.7-2.4,1
			c-0.9,0.3-2,0.4-3.2,0.4c-2.5,0-4.6-0.8-6.1-2.3c-1.5-1.5-2.4-3.9-2.6-7.2h19.7c0.4,0,0.6,0,0.9-0.1c0.2-0.1,0.4-0.2,0.5-0.5
			c0.1-0.2,0.2-0.5,0.3-0.9s0.1-0.9,0.1-1.4c0-2.3-0.3-4.3-1-6.1C127.9,44.3,127,42.8,125.8,41.6z M108.3,50.6
			c0.4-2.3,1.2-4.1,2.4-5.4c1.3-1.3,3-1.9,5.3-1.9c1.1,0,2.1,0.2,3,0.6c0.9,0.4,1.6,0.9,2.1,1.6c0.6,0.7,1,1.4,1.2,2.3
			c0.3,0.9,0.4,1.8,0.4,2.8H108.3z"/>
		<path class="st0" d="M161,41.1c-0.9-1.1-2-1.9-3.4-2.5c-1.3-0.6-2.9-0.9-4.6-0.9c-1.1,0-2.1,0.1-3,0.3c-0.9,0.2-1.8,0.5-2.6,0.9
			c-0.8,0.4-1.6,0.9-2.3,1.4c-0.7,0.5-1.4,1.1-2,1.8l-0.5-2.5c-0.3-0.9-1-1.4-2-1.4h-4.7v31.9h7.7V47.1c1-1,2.1-1.9,3.3-2.5
			c1.2-0.6,2.4-0.9,3.7-0.9c1.8,0,3.2,0.5,4.1,1.6c0.9,1.1,1.4,2.6,1.4,4.5v20.3h7.7V49.9c0-1.8-0.2-3.4-0.7-4.9
			C162.6,43.5,161.9,42.2,161,41.1z"/>
		<path class="st0" d="M187.8,64.1c-0.2-0.2-0.3-0.4-0.5-0.5c-0.1-0.1-0.3-0.2-0.6-0.2c-0.2,0-0.4,0.1-0.6,0.2s-0.4,0.2-0.6,0.4
			c-0.2,0.1-0.5,0.2-0.8,0.4c-0.3,0.1-0.7,0.2-1.2,0.2c-0.8,0-1.5-0.3-2-0.8c-0.5-0.6-0.7-1.3-0.7-2.3V44h8.4v-5.5h-8.4v-10h-4
			c-0.5,0-0.8,0.1-1.1,0.3c-0.3,0.2-0.5,0.5-0.6,1l-1.6,8.7l-5.1,0.8v3c0,0.5,0.2,0.9,0.5,1.2c0.3,0.3,0.7,0.4,1.1,0.4h3.2v17.8
			c0,2.8,0.7,4.9,2.2,6.5c1.5,1.6,3.6,2.3,6.4,2.3c1.6,0,3.1-0.2,4.5-0.7c1.5-0.5,2.7-1.2,3.9-2.1L187.8,64.1z"/>
	</g>
	<g>
		<polygon class="st0" points="45.9,51.2 49,64.3 71,64.3 61,39.1 60.3,39.6 		"/>
		<path class="st0" d="M41.2,36.8c0,0,17.6,1.4,18.3,1.4c0.9,0.1,1.3,0.6,1.4,0.8l-5.7-14.3H36.2L41.2,36.8z"/>
		<polyline class="st0" points="50.4,70.3 50.4,70.3 53.4,77.9 73.4,70.3 50.4,70.3 		"/>
		<path class="st1" d="M71,64.3H49l-3.1-13l14.4-11.6l0.6-0.5l0-0.1c-0.1-0.2-0.4-0.7-1.4-0.8c-0.8-0.1-18.3-1.4-18.3-1.4l-5-12.1
			h19.1l-1.7-4.2c0-0.1-0.1-0.1-0.1-0.2c-0.7-1.5-1.3-1.7-2.5-1.7H33.7l-7.6,18.1L6.5,38.4l14.9,12.8l-4.5,19.1l16.8-10.2l16.8,10.2
			l0,0v0h23L71,64.3z M42.2,58.9l-8.7-5.3l-8.7,5.3l2.3-9.9l-7.7-6.6l10.1-0.8l3.9-9.4l3.9,9.4l1.5,0.1l8.6,0.7l-6.2,5.3L39.9,49
			L42.2,58.9z"/>
		<linearGradient id="SVGID_1_" gradientUnits="userSpaceOnUse" x1="30.6983" y1="93.9791" x2="50.7199" y2="85.8899">
			<stop  offset="0.8763" style="stop-color:#f15a2c"/>
			<stop  offset="1" style="stop-color:#FFFFFF"/>
		</linearGradient>
		<path class="st2" d="M50.7,85.8L50.7,85.8c0,0.1,0,0.1,0.1,0.2L50.7,85.8z"/>
	</g>
</g>
</svg>
